<svg width="64" height="64" viewBox="0 0 64 64" fill="none" xmlns="http://www.w3.org/2000/svg">
<path d="M34.3686 38.7C34.3686 38.9287 34.4167 39.1549 34.5101 39.3641C34.6034 39.5733 34.7399 39.7609 34.9107 39.915C35.0815 40.0691 35.283 40.1863 35.5022 40.2591C35.7215 40.3319 35.9536 40.3586 36.1839 40.3376C45.8085 39.4592 52.48 31.2502 52.48 21.578C52.48 11.9058 45.8132 4.22224 36.1934 3.28513C35.9625 3.26276 35.7294 3.28844 35.5091 3.3605C35.2888 3.43256 35.0862 3.54941 34.9143 3.70354C34.7425 3.85767 34.6051 4.04567 34.5111 4.25544C34.4171 4.46521 34.3686 4.69211 34.3686 4.92154V38.7Z" fill="#4A473E"/>
<path d="M28.9287 3.2C29.3793 3.2 29.8114 3.37698 30.13 3.69201C30.4486 4.00705 30.6276 4.43433 30.6276 4.87985V44.2193C30.6276 48.6168 28.8609 52.8341 25.7162 55.9436C22.5714 59.0531 18.3062 60.8 13.8589 60.8C13.6358 60.8 13.4149 60.7565 13.2087 60.6721C13.0026 60.5877 12.8153 60.464 12.6576 60.308C12.4998 60.152 12.3747 59.9668 12.2893 59.763C12.2039 59.5592 12.16 59.3407 12.16 59.1201V19.7807C12.16 15.3832 13.9267 11.1659 17.0714 8.05637C20.2162 4.94689 24.4814 3.2 28.9287 3.2Z" fill="#4A473E"/>
</svg>
